<svg width="66" height="66" viewBox="0 0 66 66" fill="none" xmlns="http://www.w3.org/2000/svg">
<path d="M0 20.7647C0 9.84896 8.83164 1 19.726 1H40.274C51.1684 1 60 9.84896 60 20.7647V23.2353C60 34.151 51.1684 43 40.274 43H19.726C8.83164 43 0 34.151 0 23.2353V20.7647Z" fill="#7F92DC"/>
<path d="M33.9452 64.1149V51.7067L46.274 51.6268C57.1684 51.6268 66 42.6811 66 31.646V29.9809C66 18.9457 57.1684 10 46.274 10H25.726C14.8316 10 6 18.9457 6 29.9809V31.646C6 39.3053 10.0997 44.5851 12.1495 46.2677C17.492 51.7254 28.6849 63.0881 30.6575 65.0862C32.6301 67.0843 33.9452 65.3637 33.9452 64.1149Z" fill="#3571CF"/>
</svg>
