<svg width="15" height="13" viewBox="0 0 15 13" fill="none" xmlns="http://www.w3.org/2000/svg">
<path d="M12.523 0.0410156C13.094 0.0410156 13.6416 0.267826 14.0453 0.67155C14.449 1.07527 14.6758 1.62284 14.6758 2.19379V10.8049C14.6758 11.3759 14.449 11.9234 14.0453 12.3271C13.6416 12.7309 13.094 12.9577 12.523 12.9577H2.47675C1.9058 12.9577 1.35823 12.7309 0.954509 12.3271C0.550785 11.9234 0.323975 11.3759 0.323975 10.8049V2.19379C0.323975 1.62284 0.550785 1.07527 0.954509 0.67155C1.35823 0.267826 1.9058 0.0410156 2.47675 0.0410156H12.523ZM7.4999 2.91139C6.54831 2.91139 5.6357 3.2894 4.96283 3.96228C4.28995 4.63515 3.91194 5.54776 3.91194 6.49935C3.91194 7.45094 4.28995 8.36355 4.96283 9.03642C5.6357 9.7093 6.54831 10.0873 7.4999 10.0873C8.45149 10.0873 9.3641 9.7093 10.037 9.03642C10.7098 8.36355 11.0879 7.45094 11.0879 6.49935C11.0879 5.54776 10.7098 4.63515 10.037 3.96228C9.3641 3.2894 8.45149 2.91139 7.4999 2.91139ZM7.4999 4.34657C8.07085 4.34657 8.61842 4.57338 9.02215 4.97711C9.42587 5.38083 9.65268 5.9284 9.65268 6.49935C9.65268 7.0703 9.42587 7.61787 9.02215 8.02159C8.61842 8.42532 8.07085 8.65213 7.4999 8.65213C6.92895 8.65213 6.38138 8.42532 5.97766 8.02159C5.57393 7.61787 5.34712 7.0703 5.34712 6.49935C5.34712 5.9284 5.57393 5.38083 5.97766 4.97711C6.38138 4.57338 6.92895 4.34657 7.4999 4.34657ZM12.523 2.19379H11.8055C11.6226 2.194 11.4466 2.26403 11.3136 2.38959C11.1806 2.51514 11.1006 2.68675 11.0899 2.86933C11.0792 3.05192 11.1386 3.2317 11.256 3.37196C11.3734 3.51222 11.5399 3.60235 11.7215 3.62396L11.8055 3.62898H12.523C12.7059 3.62878 12.8819 3.55874 13.0149 3.43319C13.1479 3.30763 13.2279 3.13603 13.2386 2.95344C13.2493 2.77086 13.1899 2.59107 13.0725 2.45081C12.9551 2.31056 12.7886 2.22042 12.607 2.19882L12.523 2.19379Z" fill="black"/>
</svg>
